<svg xmlns="http://www.w3.org/2000/svg" width="64" height="64" fill="none"><g clip-path="url(#a)"><path fill="#15C56F" d="M31.44 56.94a64.31 64.31 0 0 1-5.413-.165c-2.264-.166-4.515-.438-6.74-.883-.63-.126-1.216-.384-1.834-.557-.345-.1-.697-.192-1.041-.298a2.796 2.796 0 0 1-.56-.239c-.5-.272-.78-.69-.78-1.273 0-.584.227-1.035.735-1.326.357-.206.741-.325 1.138-.425a17.603 17.603 0 0 0 1.523-.477c.611-.226 1.268-.24 1.9-.365.123-.027.247-.053.37-.093.748-.239 1.1-.783 1.074-1.665 0-.199-.02-.398-.046-.597-.13-.842-.527-1.22-1.36-1.293-.865-.073-1.73-.12-2.596-.225a47.791 47.791 0 0 1-3.877-.65c-1.132-.232-2.27-.458-3.39-.756-1.672-.451-2.863-1.492-3.591-3.09-.866-1.904-1.464-3.887-1.73-5.97a20.582 20.582 0 0 1-.02-5.1c.123-1.087.331-2.148.858-3.11 1.106-2.023 2.818-3.09 5.082-3.144 1.392-.033 2.485.67 3.324 1.778.71.935 1.12 2.016 1.438 3.137.319 1.134.482 2.294.65 3.455.144.988.241 1.99.573 2.938.436 1.253 1.25 2.089 2.55 2.374.287.06.28.066.209-.212-.625-2.361-1.288-4.709-1.874-7.076-.397-1.605-.768-3.21-.963-4.855-.117-1.008-.234-2.01-.345-3.017-.104-.942-.286-1.877-.43-2.813-.546-3.56.222-6.804 2.356-9.675 1.66-2.236 3.806-3.82 6.428-4.71 1.236-.417 2.511-.53 3.806-.536 2.128-.014 4.17.404 6.064 1.425 2.296 1.24 3.93 3.117 5.048 5.485.775 1.638 1.217 3.37 1.458 5.166.37 2.76.5 5.531.54 8.31.02 1.168.026 2.341.032 3.509 0 .159.02.212.195.159 1.217-.385 2.35-.935 3.273-1.85 1.04-1.029 1.6-2.309 1.848-3.741.26-1.512.468-3.037.91-4.51.28-.915.612-1.804 1.204-2.573.82-1.061 1.906-1.611 3.201-1.757.93-.107 1.835 0 2.687.417.638.312 1.165.776 1.62 1.32.8.955 1.269 2.076 1.561 3.276.423 1.771.527 3.568.43 5.386-.085 1.65-.338 3.27-.846 4.84-.377 1.148-.885 2.223-1.717 3.118-1.035 1.108-2.33 1.738-3.76 2.109-1.022.265-2.063.391-3.104.544-2.108.305-4.23.398-6.35.464-.202 0-.404.04-.599.093-.624.166-.93.603-1.021 1.227-.078.524-.078 1.054-.104 1.585-.11 2.022-.234 4.052-.423 6.068-.091.995-.189 1.99-.293 2.984-.02.213 0 .425.033.637.084.478.364.796.8.975.423.172.872.219 1.314.298 1.36.26 2.667.703 3.962 1.2.163.06.313.147.45.246.676.484.715 1.44.077 1.977-.267.225-.585.358-.898.49a21.452 21.452 0 0 1-5.048 1.386 44.89 44.89 0 0 1-3.006.325 99.033 99.033 0 0 1-4.197.252c-.917.034-1.834.067-2.758.06l-.006.013Z"/></g><defs><clipPath id="a"><path fill="#fff" d="M5 6h54v51H5z"/></clipPath></defs></svg>